<?xml version="1.0" encoding="utf-8"?>
<!-- Generator: Adobe Illustrator 25.4.1, SVG Export Plug-In . SVG Version: 6.00 Build 0)  -->
<svg version="1.1" id="Layer_1" xmlns="http://www.w3.org/2000/svg" xmlns:xlink="http://www.w3.org/1999/xlink" x="0px" y="0px"
	 viewBox="0 0 24.9 25.1" style="enable-background:new 0 0 24.9 25.1;" xml:space="preserve">
<style type="text/css">
	.st0{fill:#FFFFFF;}
</style>
<path class="st0" d="M18.5,0.8C15,4,15.2,8.5,15.3,9.6c-0.9,0.2-1.9,0.5-3.1,1.3c-1.2,0.8-1.8,1.6-2.4,2.4c-1-0.5-4.6-2-8.9,0.3
	c-0.5,0.3-0.7,0.9-0.4,1.3c0.1,0.1,0.1,0.2,0.2,0.3c1.1,1,4.2,3.1,8,2.8c0.1,0.4,0.1,0.8,0.3,1.1c0.2,0.5,0.4,0.7,0.4,0.8
	c0,0,0,0,0,0c0.3,2.1,1.3,3.4,2.4,4.1c1.1,0.7,2.4,0.7,3.2,0.5l-0.4-1.7c0-0.1,0-0.2-0.1-0.3c-0.1-0.5-0.5-1-1.1-1.4
	c-0.6-0.3-1.2-0.4-1.7-0.3c-0.1-0.4-0.3-0.8-0.4-1.3c0,0,0,0,0,0c-0.1-0.6-0.4-1-0.6-1.4c-0.2-0.4-0.3-0.6-0.3-1.2c0-0.6-0.4-1-1-1
	c-0.1,0-0.2,0-0.2,0c-1.6,0.4-3,0-4.2-0.6l0.1-0.9c2.5-0.2,4.4,0.7,4.4,0.7c0.4,0.3,1,0.1,1.3-0.3c0.6-0.7,1.3-1.6,2.4-2.4
	c1.2-0.8,2.4-1.1,3.1-1.3c0.5-0.1,0.8-0.6,0.8-1.1c0,0-0.1-2.8,1-5.4L19,4.9c0.2,1.6,0,3.3-1.2,4.9c-0.3,0.4-0.2,1.1,0.2,1.4
	c0.1,0.1,0.1,0.1,0.2,0.1c0.5,0.2,0.8,0.5,1.2,0.9c0.4,0.4,0.7,0.9,1.4,1.2c0,0,0,0,0,0c0.4,0.2,0.6,0.4,0.9,0.7
	c-0.6,0.3-0.8,1.2-0.6,2.2c0.2,0.9,0.8,1.5,1.5,1.6l1.2,0.7c1.4-2.3,0.6-5.6-2.1-7c0,0-0.4-0.3-0.8-0.8c-0.2-0.3-0.7-0.5-1-0.8
	C21.7,7,21.3,3.3,20.1,1c-0.3-0.5-0.9-0.7-1.3-0.4C18.7,0.7,18.6,0.7,18.5,0.8z M13.1,17.6c-0.5,0.3-0.6,0.9-0.3,1.4
	c0.3,0.5,0.9,0.6,1.4,0.3s0.6-0.9,0.3-1.4C14.2,17.4,13.5,17.3,13.1,17.6z M18.1,14.3c-0.5,0.3-0.6,0.9-0.3,1.4
	c0.3,0.5,0.9,0.6,1.4,0.3c0.5-0.3,0.6-0.9,0.3-1.4C19.2,14.1,18.5,14,18.1,14.3z M17,18c-0.3,0.2-0.4,0.5-0.3,0.6
	c0.1,0.1,0.4,0.1,0.7-0.1c0.3-0.2,0.4-0.4,0.3-0.6C17.5,17.8,17.2,17.8,17,18z"/>
</svg>
